<svg width="10" height="10" viewBox="0 0 10 10" fill="none" xmlns="http://www.w3.org/2000/svg">
<g id="grass" clip-path="url(#clip0_27_636)">
<path id="Vector" fill-rule="evenodd" clip-rule="evenodd" d="M1.90262 8.60653C1.8683 8.57425 1.83435 8.54134 1.8008 8.50778C0.0296164 6.73661 0.0296167 3.86495 1.8008 2.09378C3.57197 0.322592 9.21564 0.204102 9.21564 0.204102C9.21564 0.204102 9.986 6.73661 8.21482 8.50778C6.64178 10.0808 4.20072 10.2568 2.43348 9.03573L3.85746 7.28825L6.13383 6.79679L4.27564 6.61103L5.45654 5.40864L6.80076 5.11417L5.73783 4.79939L6.80076 2.88189L5.28885 4.57775L4.705 3.75386L4.91053 5.11417L3.85746 6.30132L3.36932 4.79937V6.79679L1.90262 8.60653Z" fill="white"/>
</g>
<defs>
<clipPath id="clip0_27_636">
<rect width="10" height="10" fill="white"/>
</clipPath>
</defs>
</svg>
