<svg width="10" height="10" viewBox="0 0 10 10" fill="none" xmlns="http://www.w3.org/2000/svg">
<g id="ice" clip-path="url(#clip0_27_603)">
<path id="Vector" fill-rule="evenodd" clip-rule="evenodd" d="M7.50602 0.762695L7.53678 3.46485L5.17994 4.59623L5.15088 2.04489L7.50602 0.762695Z" fill="white"/>
<path id="Vector_2" fill-rule="evenodd" clip-rule="evenodd" d="M9.86853 5.02021L7.53542 6.35473L5.20093 5.01811L7.53421 3.79248L9.86853 5.02021Z" fill="white"/>
<path id="Vector_3" fill-rule="evenodd" clip-rule="evenodd" d="M4.78601 5.02021L2.45291 6.35473L0.118408 5.01811L2.4517 3.79248L4.78601 5.02021Z" fill="white"/>
<path id="Vector_4" fill-rule="evenodd" clip-rule="evenodd" d="M2.42651 0.751465L4.84812 1.95079L4.7862 4.56439L2.49976 3.43201L2.42651 0.751465Z" fill="white"/>
<path id="Vector_5" fill-rule="evenodd" clip-rule="evenodd" d="M7.57175 9.2485L5.15015 8.04916L5.21206 5.43555L7.49851 6.56795L7.57175 9.2485Z" fill="white"/>
<path id="Vector_6" fill-rule="evenodd" clip-rule="evenodd" d="M2.51027 9.27299L2.47949 6.57084L4.83635 5.43945L4.86541 7.99078L2.51027 9.27299Z" fill="white"/>
</g>
<defs>
<clipPath id="clip0_27_603">
<rect width="10" height="10" fill="white"/>
</clipPath>
</defs>
</svg>
