<svg width="150" height="144" viewBox="0 0 150 144" fill="none" xmlns="http://www.w3.org/2000/svg">
<g id="Group 21" opacity="0.8" filter="url(#filter0_f_887_1943)">
<g id="Subtract">
<mask id="path-1-inside-1_887_1943" fill="white">
<path fill-rule="evenodd" clip-rule="evenodd" d="M103.706 71.077H146C143.364 105.156 114.418 132 79.0978 132C43.7774 132 14.8311 105.156 12.1956 71.077H53.0468C55.6714 82.7045 66.0156 91.3848 78.3765 91.3848C90.7375 91.3848 101.082 82.7045 103.706 71.077ZM103.706 59.4726H145.872C142.539 26.0859 113.916 0 79.0978 0C44.28 0 15.6563 26.0859 12.324 59.4726H53.0468C55.6715 47.8451 66.0156 39.165 78.3765 39.165C90.7374 39.165 101.082 47.8451 103.706 59.4726ZM12 66L12.0003 65.8031V66.1969L12 66Z"/>
</mask>
<path fill-rule="evenodd" clip-rule="evenodd" d="M103.706 71.077H146C143.364 105.156 114.418 132 79.0978 132C43.7774 132 14.8311 105.156 12.1956 71.077H53.0468C55.6714 82.7045 66.0156 91.3848 78.3765 91.3848C90.7375 91.3848 101.082 82.7045 103.706 71.077ZM103.706 59.4726H145.872C142.539 26.0859 113.916 0 79.0978 0C44.28 0 15.6563 26.0859 12.324 59.4726H53.0468C55.6715 47.8451 66.0156 39.165 78.3765 39.165C90.7374 39.165 101.082 47.8451 103.706 59.4726ZM12 66L12.0003 65.8031V66.1969L12 66Z" fill="black" fill-opacity="0.15"/>
<path d="M146 71.077L146.498 71.1155L146.54 70.577H146V71.077ZM103.706 71.077V70.577H103.307L103.219 70.9669L103.706 71.077ZM12.1956 71.077V70.577H11.6554L11.6971 71.1155L12.1956 71.077ZM53.0468 71.077L53.5345 70.9669L53.4465 70.577H53.0468V71.077ZM145.872 59.4726V59.9726H146.424L146.369 59.4229L145.872 59.4726ZM103.706 59.4726L103.218 59.5827L103.306 59.9726H103.706V59.4726ZM12.324 59.4726L11.8265 59.4229L11.7716 59.9726H12.324V59.4726ZM53.0468 59.4726V59.9726H53.4465L53.5345 59.5827L53.0468 59.4726ZM12.0003 65.8031H12.5003L11.5003 65.8023L12.0003 65.8031ZM12 66L11.5 65.9993L11.5 66.0007L12 66ZM12.0003 66.1969L11.5003 66.1977L12.5003 66.1969H12.0003ZM146 70.577H103.706V71.577H146V70.577ZM79.0978 132.5C114.674 132.5 143.842 105.459 146.498 71.1155L145.501 71.0384C142.886 104.852 114.162 131.5 79.0978 131.5V132.5ZM11.6971 71.1155C14.3531 105.459 43.5211 132.5 79.0978 132.5V131.5C44.0336 131.5 15.3091 104.852 12.6941 71.0384L11.6971 71.1155ZM53.0468 70.577H12.1956V71.577H53.0468V70.577ZM78.3765 90.8848C66.2561 90.8848 56.1091 82.3731 53.5345 70.9669L52.559 71.187C55.2336 83.036 65.7751 91.8848 78.3765 91.8848V90.8848ZM103.219 70.9669C100.644 82.3731 90.497 90.8848 78.3765 90.8848V91.8848C90.978 91.8848 101.519 83.036 104.194 71.187L103.219 70.9669ZM145.872 58.9726H103.706V59.9726H145.872V58.9726ZM79.0978 0.5C113.663 0.5 142.068 26.3952 145.374 59.5222L146.369 59.4229C143.011 25.7765 114.168 -0.5 79.0978 -0.5V0.5ZM12.8215 59.5222C16.1279 26.3952 44.5328 0.5 79.0978 0.5V-0.5C44.0272 -0.5 15.1847 25.7765 11.8265 59.4229L12.8215 59.5222ZM53.0468 58.9726H12.324V59.9726H53.0468V58.9726ZM53.5345 59.5827C56.1093 48.1765 66.2561 39.665 78.3765 39.665V38.665C65.7751 38.665 55.2337 47.5137 52.5591 59.3625L53.5345 59.5827ZM78.3765 39.665C90.4969 39.665 100.644 48.1765 103.218 59.5827L104.194 59.3625C101.519 47.5137 90.9779 38.665 78.3765 38.665V39.665ZM11.5003 65.8023L11.5 65.9993L12.5 66.0007L12.5003 65.8038L11.5003 65.8023ZM12.5003 66.1969V65.8031H11.5003V66.1969H12.5003ZM11.5 66.0007L11.5003 66.1977L12.5003 66.1962L12.5 65.9993L11.5 66.0007Z" fill="black" fill-opacity="0.4" mask="url(#path-1-inside-1_887_1943)"/>
</g>
<circle id="Ellipse 4" cx="79.5" cy="64.5" r="17.5" fill="black" fill-opacity="0.15"/>
</g>
<defs>
<filter id="filter0_f_887_1943" x="0" y="-12" width="158" height="156" filterUnits="userSpaceOnUse" color-interpolation-filters="sRGB">
<feFlood flood-opacity="0" result="BackgroundImageFix"/>
<feBlend mode="normal" in="SourceGraphic" in2="BackgroundImageFix" result="shape"/>
<feGaussianBlur stdDeviation="6" result="effect1_foregroundBlur_887_1943"/>
</filter>
</defs>
</svg>
