<svg width="21" height="18" viewBox="0 0 21 18" fill="none" xmlns="http://www.w3.org/2000/svg">
<g id="Group">
<g id="Group_2">
<g id="Group_3">
<path id="Vector" d="M5.83582 7.6324V2.13975L7.71478 4.01475C7.82531 4.12504 7.98004 4.19122 8.13478 4.19122C8.28952 4.19122 8.44426 4.12504 8.55478 4.01475C8.79794 3.7721 8.79794 3.3971 8.55478 3.15446L5.65898 0.264749C5.41582 0.0221019 5.04003 0.0221019 4.79687 0.264749L1.87896 3.15446C1.6358 3.3971 1.6358 3.7721 1.87896 4.01475C2.12212 4.2574 2.49791 4.2574 2.74107 4.01475L4.62003 2.13975V7.61034C2.01159 7.91916 0 10.125 0 12.7942C0 15.6618 2.34317 18.0001 5.21687 18.0001C8.09057 18.0001 10.4337 15.6618 10.4337 12.7942C10.4337 10.125 8.42215 7.91916 5.83582 7.6324ZM5.21687 16.8089C3.00633 16.8089 1.2158 15 1.2158 12.7942C1.2158 10.5883 3.00633 8.80152 5.21687 8.80152C7.42741 8.80152 9.21795 10.5883 9.21795 12.7942C9.21795 15 7.42741 16.8089 5.21687 16.8089Z" fill="#555252"/>
<path id="Vector_2" d="M21.0001 5.20588C21.0001 2.33824 18.657 0 15.7833 0C12.9096 0 10.5664 2.33824 10.5664 5.20588C10.5664 7.875 12.578 10.0809 15.1864 10.3897V14.0074H13.1085C12.7769 14.0074 12.5117 14.2721 12.5117 14.6029C12.5117 14.9338 12.7769 15.1985 13.1085 15.1985H15.1864V17.3382C15.1864 17.6691 15.4517 17.9338 15.7833 17.9338C16.1149 17.9338 16.3801 17.6691 16.3801 17.3382V15.1985H18.458C18.7896 15.1985 19.0549 14.9338 19.0549 14.6029C19.0549 14.2721 18.7896 14.0074 18.458 14.0074H16.3801V10.3677C18.9886 10.0809 21.0001 7.875 21.0001 5.20588ZM15.7833 9.19853C13.5727 9.19853 11.7822 7.41177 11.7822 5.20588C11.7822 3 13.5727 1.21324 15.7833 1.21324C17.9938 1.21324 19.7844 3 19.7844 5.20588C19.7844 7.41177 17.9938 9.19853 15.7833 9.19853Z" fill="#555252"/>
</g>
</g>
</g>
</svg>
