<svg width="44" height="44" viewBox="0 0 44 44" fill="none" xmlns="http://www.w3.org/2000/svg">
<g id="Component 2" clip-path="url(#clip0_887_3838)" filter="url(#filter0_d_887_3838)">
<g id="Vector" filter="url(#filter1_d_887_3838)">
<path d="M33.6668 23.3333C36.1502 20.9 38.6668 17.9833 38.6668 14.1667C38.6668 11.7355 37.7011 9.40394 35.982 7.68485C34.2629 5.96577 31.9313 5 29.5002 5C26.5668 5 24.5002 5.83333 22.0002 8.33333C19.5002 5.83333 17.4335 5 14.5002 5C12.069 5 9.73743 5.96577 8.01835 7.68485C6.29927 9.40394 5.3335 11.7355 5.3335 14.1667C5.3335 18 7.8335 20.9167 10.3335 23.3333L22.0002 35L33.6668 23.3333Z" stroke="black" stroke-width="2" stroke-linecap="round" stroke-linejoin="round" shape-rendering="crispEdges"/>
</g>
</g>
<defs>
<filter id="filter0_d_887_3838" x="-2" y="0" width="48" height="48" filterUnits="userSpaceOnUse" color-interpolation-filters="sRGB">
<feFlood flood-opacity="0" result="BackgroundImageFix"/>
<feColorMatrix in="SourceAlpha" type="matrix" values="0 0 0 0 0 0 0 0 0 0 0 0 0 0 0 0 0 0 127 0" result="hardAlpha"/>
<feOffset dy="4"/>
<feGaussianBlur stdDeviation="2"/>
<feComposite in2="hardAlpha" operator="out"/>
<feColorMatrix type="matrix" values="0 0 0 0 0 0 0 0 0 0 0 0 0 0 0 0 0 0 0.25 0"/>
<feBlend mode="normal" in2="BackgroundImageFix" result="effect1_dropShadow_887_3838"/>
<feBlend mode="normal" in="SourceGraphic" in2="effect1_dropShadow_887_3838" result="shape"/>
</filter>
<filter id="filter1_d_887_3838" x="0.333496" y="4" width="43.3335" height="40" filterUnits="userSpaceOnUse" color-interpolation-filters="sRGB">
<feFlood flood-opacity="0" result="BackgroundImageFix"/>
<feColorMatrix in="SourceAlpha" type="matrix" values="0 0 0 0 0 0 0 0 0 0 0 0 0 0 0 0 0 0 127 0" result="hardAlpha"/>
<feOffset dy="4"/>
<feGaussianBlur stdDeviation="2"/>
<feComposite in2="hardAlpha" operator="out"/>
<feColorMatrix type="matrix" values="0 0 0 0 0 0 0 0 0 0 0 0 0 0 0 0 0 0 0.25 0"/>
<feBlend mode="normal" in2="BackgroundImageFix" result="effect1_dropShadow_887_3838"/>
<feBlend mode="normal" in="SourceGraphic" in2="effect1_dropShadow_887_3838" result="shape"/>
</filter>
<clipPath id="clip0_887_3838">
<rect width="40" height="40" fill="white" transform="translate(2)"/>
</clipPath>
</defs>
</svg>
