<svg width="40" height="40" viewBox="0 0 40 40" fill="none" xmlns="http://www.w3.org/2000/svg">
<g id="Component 2" clip-path="url(#clip0_887_5189)">
<g id="Vector" filter="url(#filter0_d_887_5189)">
<path d="M31.6668 23.3333C34.1502 20.9 36.6668 17.9833 36.6668 14.1667C36.6668 11.7355 35.7011 9.40394 33.982 7.68485C32.2629 5.96577 29.9313 5 27.5002 5C24.5668 5 22.5002 5.83333 20.0002 8.33333C17.5002 5.83333 15.4335 5 12.5002 5C10.069 5 7.73743 5.96577 6.01835 7.68485C4.29927 9.40394 3.3335 11.7355 3.3335 14.1667C3.3335 18 5.8335 20.9167 8.3335 23.3333L20.0002 35L31.6668 23.3333Z" fill="#F10A34"/>
<path d="M31.6668 23.3333C34.1502 20.9 36.6668 17.9833 36.6668 14.1667C36.6668 11.7355 35.7011 9.40394 33.982 7.68485C32.2629 5.96577 29.9313 5 27.5002 5C24.5668 5 22.5002 5.83333 20.0002 8.33333C17.5002 5.83333 15.4335 5 12.5002 5C10.069 5 7.73743 5.96577 6.01835 7.68485C4.29927 9.40394 3.3335 11.7355 3.3335 14.1667C3.3335 18 5.8335 20.9167 8.3335 23.3333L20.0002 35L31.6668 23.3333Z" stroke="black" stroke-width="2" stroke-linecap="round" stroke-linejoin="round"/>
</g>
</g>
<defs>
<filter id="filter0_d_887_5189" x="-1.6665" y="4" width="43.3335" height="40" filterUnits="userSpaceOnUse" color-interpolation-filters="sRGB">
<feFlood flood-opacity="0" result="BackgroundImageFix"/>
<feColorMatrix in="SourceAlpha" type="matrix" values="0 0 0 0 0 0 0 0 0 0 0 0 0 0 0 0 0 0 127 0" result="hardAlpha"/>
<feOffset dy="4"/>
<feGaussianBlur stdDeviation="2"/>
<feComposite in2="hardAlpha" operator="out"/>
<feColorMatrix type="matrix" values="0 0 0 0 0 0 0 0 0 0 0 0 0 0 0 0 0 0 0.25 0"/>
<feBlend mode="normal" in2="BackgroundImageFix" result="effect1_dropShadow_887_5189"/>
<feBlend mode="normal" in="SourceGraphic" in2="effect1_dropShadow_887_5189" result="shape"/>
</filter>
<clipPath id="clip0_887_5189">
<rect width="40" height="40" fill="white"/>
</clipPath>
</defs>
</svg>
