<svg width="32" height="32" viewBox="0 0 32 32" fill="none" xmlns="http://www.w3.org/2000/svg">
<g id="Group 111">
<path id="Vector" d="M16.0052 0C9.32537 0 7.37177 0.00689289 6.99203 0.0384033C5.62121 0.152382 4.7682 0.368277 3.8389 0.831086C3.12272 1.18681 2.55791 1.59915 2.00047 2.17717C0.985278 3.23129 0.370009 4.52814 0.147282 6.06968C0.0389944 6.81805 0.00749261 6.97068 0.00109381 10.7933C-0.00136726 12.0675 0.00109381 13.7444 0.00109381 15.9937C0.00109381 22.67 0.00847704 24.6221 0.040471 25.0013C0.151219 26.3355 0.360411 27.175 0.803404 28.0932C1.65001 29.8509 3.26694 31.1704 5.17181 31.6627C5.83138 31.8326 6.55986 31.9261 7.49507 31.9705C7.8913 31.9877 11.9299 32 15.971 32C20.0121 32 24.0532 31.9951 24.4396 31.9754C25.5224 31.9244 26.1513 31.84 26.8465 31.6603C27.791 31.418 28.6713 30.9724 29.4258 30.3546C30.1803 29.7368 30.7909 28.9617 31.2149 28.0834C31.6493 27.1873 31.8696 26.3158 31.9692 25.0512C31.9909 24.7755 32 20.3796 32 15.9895C32 11.5988 31.9902 7.21095 31.9685 6.93523C31.8676 5.6502 31.6473 4.78613 31.1989 3.87282C30.831 3.12519 30.4224 2.56686 29.8293 1.99598C28.7711 0.984699 27.4765 0.369262 25.9337 0.14672C25.1863 0.0386494 25.0374 0.00664672 21.2129 0H16.0052Z" fill="url(#paint0_radial_71_2044)"/>
<g id="Group 110">
<path id="Vector_2" d="M16.0052 0C9.32537 0 7.37177 0.00689289 6.99203 0.0384033C5.62121 0.152382 4.7682 0.368277 3.8389 0.831086C3.12272 1.18681 2.55791 1.59915 2.00047 2.17717C0.985278 3.23129 0.370009 4.52814 0.147282 6.06968C0.0389944 6.81805 0.00749261 6.97068 0.00109381 10.7933C-0.00136726 12.0675 0.00109381 13.7444 0.00109381 15.9937C0.00109381 22.67 0.00847704 24.6221 0.040471 25.0013C0.151219 26.3355 0.360411 27.175 0.803404 28.0932C1.65001 29.8509 3.26694 31.1704 5.17181 31.6627C5.83138 31.8326 6.55986 31.9261 7.49507 31.9705C7.8913 31.9877 11.9299 32 15.971 32C20.0121 32 24.0532 31.9951 24.4396 31.9754C25.5224 31.9244 26.1513 31.84 26.8465 31.6603C27.791 31.418 28.6713 30.9724 29.4258 30.3546C30.1803 29.7368 30.7909 28.9617 31.2149 28.0834C31.6493 27.1873 31.8696 26.3158 31.9692 25.0512C31.9909 24.7755 32 20.3796 32 15.9895C32 11.5988 31.9902 7.21095 31.9685 6.93523C31.8676 5.6502 31.6473 4.78613 31.1989 3.87282C30.831 3.12519 30.4224 2.56686 29.8293 1.99598C28.7711 0.984699 27.4765 0.369262 25.9337 0.14672C25.1863 0.0386494 25.0374 0.00664672 21.2129 0H16.0052Z" fill="url(#paint1_radial_71_2044)"/>
<path id="Vector_3" d="M15.9978 4.185C12.7896 4.185 12.3869 4.19903 11.1269 4.25639C9.86926 4.31399 9.01084 4.51315 8.25972 4.80536C7.48276 5.10717 6.82368 5.51089 6.16706 6.16793C5.50996 6.82473 5.10634 7.48398 4.80363 8.26091C4.51076 9.01248 4.31141 9.87139 4.25481 11.1288C4.1987 12.3893 4.18393 12.7922 4.18393 16.0014C4.18393 19.2105 4.1982 19.612 4.2553 20.8724C4.31314 22.1304 4.51224 22.989 4.80412 23.7404C5.10609 24.5175 5.50971 25.1768 6.16657 25.8336C6.82294 26.4909 7.48202 26.8956 8.25849 27.1974C9.0101 27.4896 9.86877 27.6888 11.1261 27.7464C12.3862 27.8037 12.7886 27.8178 15.9966 27.8178C19.2051 27.8178 19.6065 27.8037 20.8666 27.7464C22.1242 27.6888 22.9836 27.4896 23.7352 27.1974C24.5119 26.8956 25.17 26.4909 25.8264 25.8336C26.4835 25.1768 26.8871 24.5175 27.1898 23.7406C27.4802 22.9891 27.6796 22.1301 27.7386 20.8727C27.7952 19.6123 27.81 19.2105 27.81 16.0014C27.81 12.7922 27.7952 12.3895 27.7386 11.1291C27.6796 9.87114 27.4802 9.01248 27.1898 8.26116C26.8871 7.48398 26.4835 6.82473 25.8264 6.16793C25.1693 5.51065 24.5122 5.10692 23.7345 4.80536C22.9814 4.51315 22.1225 4.31399 20.8649 4.25639C19.6048 4.19903 19.2036 4.185 15.9944 4.185H15.9978ZM14.9381 6.31441C15.2526 6.31392 15.6036 6.31441 15.9978 6.31441C19.1519 6.31441 19.5258 6.32573 20.7713 6.38235C21.9231 6.43503 22.5482 6.62754 22.9646 6.78928C23.5159 7.00345 23.909 7.25947 24.3222 7.67305C24.7356 8.08662 24.9916 8.4805 25.2062 9.03193C25.3679 9.44797 25.5606 10.0732 25.613 11.2253C25.6696 12.471 25.6819 12.8452 25.6819 15.9987C25.6819 19.1522 25.6696 19.5264 25.613 20.772C25.5603 21.9241 25.3679 22.5494 25.2062 22.9654C24.9921 23.5168 24.7356 23.9095 24.3222 24.3228C23.9087 24.7364 23.5162 24.9924 22.9646 25.2066C22.5487 25.3691 21.9231 25.5611 20.7713 25.6138C19.526 25.6704 19.1519 25.6827 15.9978 25.6827C12.8435 25.6827 12.4696 25.6704 11.2243 25.6138C10.0725 25.5606 9.44743 25.3681 9.03077 25.2063C8.47949 24.9922 8.08572 24.7362 7.67226 24.3226C7.2588 23.909 7.00285 23.5161 6.78824 22.9644C6.62655 22.5484 6.43385 21.9231 6.38142 20.771C6.32482 19.5254 6.3135 19.1512 6.3135 15.9957C6.3135 12.8403 6.32482 12.468 6.38142 11.2224C6.43409 10.0703 6.62655 9.44501 6.78824 9.02848C7.00235 8.47705 7.2588 8.08317 7.67226 7.6696C8.08572 7.25603 8.47949 7.00001 9.03077 6.78534C9.44719 6.62287 10.0725 6.43085 11.2243 6.37792C12.3141 6.32869 12.7364 6.31392 14.9381 6.31145V6.31441ZM22.3036 8.27642C22.0232 8.27642 21.7491 8.3596 21.516 8.51543C21.2829 8.67126 21.1012 8.89274 20.9939 9.15187C20.8866 9.411 20.8586 9.69613 20.9133 9.9712C20.968 10.2463 21.1031 10.4989 21.3014 10.6972C21.4997 10.8955 21.7523 11.0305 22.0273 11.0852C22.3024 11.1398 22.5874 11.1117 22.8464 11.0043C23.1054 10.8969 23.3268 10.7151 23.4825 10.4818C23.6382 10.2486 23.7213 9.97436 23.7212 9.69389C23.7212 8.91106 23.0862 8.27593 22.3036 8.27593V8.27642ZM15.9978 9.93318C12.6476 9.93318 9.93128 12.6502 9.93128 16.0014C9.93128 19.3526 12.6476 22.0684 15.9978 22.0684C19.3481 22.0684 22.0636 19.3526 22.0636 16.0014C22.0636 12.6502 19.3481 9.93318 15.9978 9.93318ZM15.9978 12.0626C18.1724 12.0626 19.9356 13.8259 19.9356 16.0014C19.9356 18.1766 18.1724 19.9402 15.9978 19.9402C13.823 19.9402 12.0601 18.1766 12.0601 16.0014C12.0601 13.8259 13.823 12.0626 15.9978 12.0626Z" fill="white"/>
</g>
</g>
<defs>
<radialGradient id="paint0_radial_71_2044" cx="0" cy="0" r="1" gradientUnits="userSpaceOnUse" gradientTransform="translate(8.50004 34.4647) rotate(-90) scale(31.7144 29.4969)">
<stop stop-color="#FFDD55"/>
<stop offset="0.1" stop-color="#FFDD55"/>
<stop offset="0.5" stop-color="#FF543E"/>
<stop offset="1" stop-color="#C837AB"/>
</radialGradient>
<radialGradient id="paint1_radial_71_2044" cx="0" cy="0" r="1" gradientUnits="userSpaceOnUse" gradientTransform="translate(-5.36017 2.30523) rotate(78.6806) scale(14.1765 58.4359)">
<stop stop-color="#3771C8"/>
<stop offset="0.128" stop-color="#3771C8"/>
<stop offset="1" stop-color="#6600FF" stop-opacity="0"/>
</radialGradient>
</defs>
</svg>
