<svg width="31" height="32" viewBox="0 0 31 32" fill="none" xmlns="http://www.w3.org/2000/svg">
<path id="Vector" fill-rule="evenodd" clip-rule="evenodd" d="M5.2662 5.58143C6.25638 6.3859 6.62783 6.32453 8.48724 6.20046L26.0165 5.14791C26.3883 5.14791 26.0791 4.77701 25.9551 4.71539L23.0439 2.61078C22.4861 2.1777 21.7429 1.68174 20.3185 1.80581L3.34492 3.0438C2.72589 3.10518 2.60226 3.4147 2.84877 3.66277L5.2662 5.58143ZM6.31863 9.66663V28.1105C6.31863 29.1017 6.81397 29.4725 7.92884 29.4112L27.1935 28.2965C28.3089 28.2352 28.4332 27.5534 28.4332 26.7481V8.42807C28.4332 7.62415 28.1239 7.19063 27.4411 7.25251L7.30937 8.42807C6.56639 8.49051 6.31863 8.86215 6.31863 9.66663ZM25.3367 10.656C25.4602 11.2136 25.3367 11.7707 24.778 11.8334L23.8498 12.0183V25.6347C23.0439 26.0679 22.3007 26.3155 21.6815 26.3155C20.69 26.3155 20.4417 26.0058 19.699 25.0779L13.6274 15.5464V24.7684L15.5487 25.202C15.5487 25.202 15.5487 26.3155 13.9986 26.3155L9.72543 26.5634C9.6013 26.3155 9.72543 25.6971 10.1589 25.5732L11.274 25.2641V13.0708L9.72574 12.9467C9.60155 12.3891 9.91081 11.5852 10.7787 11.5228L15.3628 11.2138L21.6815 20.8694V12.3278L20.0704 12.1429C19.9468 11.4612 20.4417 10.9663 21.0612 10.9049L25.3367 10.656ZM1.91978 1.37279L19.5751 0.0725966C21.7432 -0.113351 22.301 0.0112196 23.6637 1.00108L29.2995 4.96221C30.2294 5.64337 30.5394 5.82882 30.5394 6.57135V28.2965C30.5394 29.658 30.0433 30.4633 28.3092 30.5865L7.80615 31.8246C6.50439 31.8867 5.88486 31.7011 5.20314 30.8341L1.05287 25.4493C0.309265 24.4581 0 23.7166 0 22.849V3.53826C0 2.42484 0.496151 1.49604 1.91978 1.37279Z" fill="black"/>
</svg>
