<svg width="34" height="34" viewBox="0 0 34 34" fill="none" xmlns="http://www.w3.org/2000/svg">
<g id="Group">
<g id="Group 113">
<g id="Group 112">
<path id="Vector" d="M2.12508 16.8649C2.1243 19.4844 2.81181 22.0422 4.11923 24.2967L2 32L9.91861 29.933C12.1003 31.1167 14.5566 31.7414 17.0564 31.7423H17.0631C25.2953 31.7423 31.9966 25.0732 32 16.8765C32.0017 12.9045 30.4493 9.16965 27.6288 6.35982C24.8089 3.54999 21.0584 2.00177 17.0626 2C8.82936 2 2.12842 8.66841 2.12508 16.8649Z" fill="url(#paint0_linear_71_2051)"/>
</g>
<path id="Vector_2" d="M1.01263 33.0484L0.928814 33.0703L0.951791 32.9867L3.20666 24.7904C1.81488 22.3824 1.08275 19.6524 1.08378 16.8559C1.08735 8.08524 8.25708 0.950001 17.067 0.950001C21.3421 0.951946 25.3551 2.60845 28.3729 5.61491C31.3903 8.62148 33.0515 12.6182 33.05 16.8688C33.0463 25.6391 25.8755 32.7755 17.067 32.7755H17.0601C14.392 32.7745 11.7701 32.1099 9.43996 30.8486L1.01263 33.0484ZM6.20595 24.3427L6.21776 24.3613L6.2119 24.3826L4.89669 29.1625L9.82513 27.8762L9.84525 27.8709L9.86316 27.8815L10.347 28.1669L10.347 28.1669C12.3721 29.3633 14.6941 29.9962 17.0619 29.9975H17.0671C24.3386 29.9975 30.2567 24.1069 30.2598 16.8677C30.2608 13.3592 28.8903 10.0605 26.3993 7.5789C23.9081 5.09716 20.5963 3.72972 17.0721 3.7283C9.79461 3.7283 3.87677 9.61802 3.87398 16.857C3.87283 19.3378 4.57004 21.7537 5.89067 23.8442L6.20595 24.3427Z" fill="white" stroke="#BDBDBD" stroke-width="0.1"/>
<path id="Vector_3" fill-rule="evenodd" clip-rule="evenodd" d="M13.1103 9.68915C12.8123 9.03388 12.4986 9.02068 12.2152 9.00918C11.9833 8.99939 11.7179 9.00001 11.4529 9.00001C11.1877 9.00001 10.7567 9.09855 10.3923 9.49234C10.0277 9.88613 9 10.8381 9 12.7742C9 14.7106 10.4255 16.5814 10.6242 16.8442C10.823 17.1066 13.3759 21.2067 17.4188 22.7841C20.7789 24.095 21.4626 23.8343 22.1919 23.7687C22.9212 23.7031 24.5452 22.8169 24.8767 21.898C25.2082 20.9792 25.2082 20.1917 25.1088 20.027C25.0093 19.863 24.7441 19.7647 24.3463 19.5678C23.9485 19.371 21.993 18.4189 21.6283 18.2877C21.2637 18.1565 20.9985 18.091 20.7333 18.4849C20.4681 18.8785 19.7063 19.7647 19.4741 20.0271C19.2421 20.2901 19.0101 20.3229 18.6123 20.126C18.2145 19.9287 16.9334 19.5135 15.4136 18.173C14.2312 17.13 13.4329 15.8418 13.2008 15.4479C12.9687 15.0543 13.176 14.8411 13.3755 14.6449C13.5541 14.4686 13.7733 14.1856 13.9722 13.9558C14.1707 13.726 14.237 13.562 14.3696 13.2996C14.5022 13.0368 14.4359 12.807 14.3364 12.6102C14.237 12.4134 13.464 10.4672 13.1103 9.68915Z" fill="white"/>
</g>
</g>
<defs>
<linearGradient id="paint0_linear_71_2051" x1="16.9999" y1="32" x2="16.9999" y2="1.99997" gradientUnits="userSpaceOnUse">
<stop stop-color="#20B038"/>
<stop offset="1" stop-color="#60D66A"/>
</linearGradient>
</defs>
</svg>
